<?xml version="1.0" encoding="utf-8"?>
<!-- Generator: Adobe Illustrator 18.0.0, SVG Export Plug-In . SVG Version: 6.00 Build 0)  -->
<!DOCTYPE svg PUBLIC "-//W3C//DTD SVG 1.1//EN" "http://www.w3.org/Graphics/SVG/1.1/DTD/svg11.dtd">
<svg version="1.1" id="Layer_1" xmlns="http://www.w3.org/2000/svg" xmlns:xlink="http://www.w3.org/1999/xlink" x="0px" y="0px"
	 viewBox="0 0 500 500" enable-background="new 0 0 500 500" xml:space="preserve">
<g>
	<path fill="#D1D1D1" d="M188.4,199l202.3,202.3c7.8,7.8,7.8,20.5,0,28.3l-23,23c-7.8,7.8-20.5,7.8-28.3,0L147.8,260.9
		c-5.9-5.9-5.9-15.4,0-21.2L188.4,199z"/>
	<path opacity="0.52" fill="#BCBCBC" d="M390.7,99.3L188.4,301.6l-40.7-40.7c-5.9-5.9-5.9-15.4,0-21.2L339.5,48
		c7.8-7.8,20.5-7.8,28.3,0l23,23C398.5,78.8,398.5,91.5,390.7,99.3z"/>
	<path fill="#E0E0E0" d="M391.3,98.7L239.7,250.3L188.4,199L340,47.4c7.8-7.8,20.5-7.8,28.3,0l23,23
		C399.1,78.2,399.1,90.9,391.3,98.7z"/>
</g>
</svg>
