<?xml version="1.0" encoding="utf-8"?>
<!-- Generator: Adobe Illustrator 18.0.0, SVG Export Plug-In . SVG Version: 6.00 Build 0)  -->
<!DOCTYPE svg PUBLIC "-//W3C//DTD SVG 1.1//EN" "http://www.w3.org/Graphics/SVG/1.1/DTD/svg11.dtd">
<svg version="1.1" id="Layer_1" xmlns="http://www.w3.org/2000/svg" xmlns:xlink="http://www.w3.org/1999/xlink" x="0px" y="0px"
	 viewBox="0 0 500 500" enable-background="new 0 0 500 500" xml:space="preserve">
<g>
	<path fill="#D1D1D1" d="M352.1,301L149.8,98.7c-7.8-7.8-7.8-20.5,0-28.3l23-23c7.8-7.8,20.5-7.8,28.3,0l191.7,191.7
		c5.9,5.9,5.9,15.4,0,21.2L352.1,301z"/>
	<path opacity="0.52" fill="#BCBCBC" d="M149.8,400.7l202.3-202.3l40.7,40.7c5.9,5.9,5.9,15.4,0,21.2L201.1,452
		c-7.8,7.8-20.5,7.8-28.3,0l-23-23C142,421.2,142,408.5,149.8,400.7z"/>
	<path fill="#E0E0E0" d="M149.2,401.3l151.6-151.6l51.3,51.3L200.5,452.6c-7.8,7.8-20.5,7.8-28.3,0l-23-23
		C141.4,421.8,141.4,409.1,149.2,401.3z"/>
</g>
</svg>
